Patient4_TMGait_0pt6_01_right_14_EMG.mot
version=1
nRows=16
nColumns=33
inDegrees=no
endheader
time	1LAddLong	2LGlutMax	3LGlutMed	4LIliopsoas	5LSemiMemb	6LBicFemLong	7LRecFem	8LVastMed	9LVastLat	10LGasMed	11LTibAnt	12lTibPost	13LPeroneusLong	14LSol	15LExtDigLong	16LFlexDigLong	17RAddLong	18RGlutMax	19RGlutMed	20RIliopsoas	21RSemiMemb	22RBicFemLong	23RRecFem	24RVastMed	25RVastLat	26RGasMed	27RTibAnt	28RTibPost	29RPeroneusLong	30RSol	31RExtDigLong	32RFlexDigLong
16.43	0.000305	-0.26977	0.12909	0.016479	-0.017395	0.020752	0.11032	0.023651	0.018005	-0.48523	-0.030518	0.005341	0.22705	0.080261	-0.034943	0.004883	0.090179	-0.41046	-0.16129	0.086823	-0.035706	0.00946	0.34927	0.066833	-0.011444	-0.009308	-0.019836	0.000153	-0.18295	0.045624	-0.010529	-0.007935
16.431	-0.012817	-0.27756	0.049286	0.031281	-0.021362	0.037994	0.10696	0.014496	-0.001373	-0.15732	-0.021057	0.001373	0.53451	-0.051575	-0.1181	-0.007629	0.090485	-0.41458	-0.09613	0.047913	-0.010529	0.007324	0.16434	0.092621	-0.000458	-0.002441	-0.20233	0.001831	0.051117	0.030212	-0.008698	-0.009003
16.432	0.005035	-0.20462	0.085602	0.021667	0.012665	0.017853	0.11993	0.023804	0.023193	0.32211	0.021515	-0.012207	0.20172	0.048981	-0.098572	-0.009308	0.079651	-0.36209	-0.11337	-0.076141	-0.000916	0.015564	-0.015869	0.045776	0.015869	0.006104	-0.66879	0.000153	0.14984	-0.097656	-0.001373	0.000458
16.433	-0.000153	-0.13886	0.11887	-0.002899	0.030365	0.077515	0.12909	0.024261	0.039063	0.082397	0.01236	-0.02243	-0.24582	0.19455	-0.024719	-0.013428	0.040894	-0.33646	-0.13168	-0.0383	-0.000458	0.023956	-0.094452	0.025482	0.028839	0.01297	-0.35004	-0.005188	0.10361	-0.17624	0.003204	0.002136
16.434	-0.004578	-0.12833	0.11475	-0.006866	-0.026855	0.19745	0.15259	0.025482	0.007172	-0.23651	0.01297	-0.019989	-0.34119	0.32577	-0.020752	-0.00946	-0.001831	-0.31967	0.075226	0.063782	-0.006561	0.033722	-0.04425	-0.075378	0.016174	0.007019	-0.41687	0.001373	0.12726	-0.16846	0	0.007172
16.435	-0.000763	-0.13992	0.02594	-0.020905	-0.028687	0.13519	0.13229	0.020294	0.024872	-0.21606	0.018921	0.001984	-0.30243	0.17929	0.039063	0.000305	-0.029755	-0.3566	0.20248	0.11475	0.000305	0.022888	0.17807	-0.1387	-0.015717	-0.001831	-0.43778	-0.004425	0.19134	-0.18707	-0.002289	0.000305
16.436	0.003204	-0.12466	0.076904	-0.014343	0.070648	0.063324	0.12177	-0.015564	0.077515	-0.17883	-0.00473	0.014038	0	0.005188	0.062714	0.020294	-0.033722	-0.32928	0.22278	0.13062	0.010223	0.014801	0.2092	-0.11261	-0.039063	-0.014648	-0.12741	-0.005035	-0.2948	-0.025482	-0.000305	-0.007782
16.437	0.009003	-0.12131	0.032196	0.00946	0.06073	0.036316	0.17731	-0.011597	-0.00885	-0.1564	-0.001831	0.012665	0.078583	0.087891	0.010681	0.004425	-0.037384	-0.31143	0.25299	-0.013428	0.026093	0.021362	-0.029449	-0.14603	-0.049744	-0.005341	0.2066	-0.007629	-0.36438	0.13687	0.001373	-0.00473
16.438	0.004272	-0.084686	0.028534	0.001526	0.060272	0.049133	0.15747	-0.003052	0.084076	-0.14389	-0.007782	-0.007782	-0.32898	0.35965	0.029907	-0.000305	-0.029755	-0.25787	0.16327	-0.053406	0.025177	0.00824	-0.27802	-0.13046	-0.063324	0.006866	0.60608	-0.003357	-0.016174	0.052032	-0.00473	0.002289
16.439	0.01297	0.014038	0.079346	0.000763	0.014343	-0.005188	0.11536	0.003967	0.14984	-0.040588	-0.042419	-0.023651	-0.2359	0.30701	-0.080261	0.009003	-0.019836	-0.19745	0.11093	-0.1149	0.024261	0.008545	-0.45105	-0.18692	-0.068054	0.006714	0.92163	-0.000763	-0.050354	-0.053253	0.003967	0.008392
16.44	0.011292	0.006104	0.024872	-0.003662	-0.024109	-0.050964	0.12192	0.001373	0.10513	0.052338	-0.073853	-0.018005	-0.11169	-0.002289	-0.12726	-0.000458	-0.010834	-0.1915	0.080109	-0.040741	-0.036163	-0.000153	-0.34271	-0.14008	-0.065918	0.002441	0.97519	-0.002289	-0.076599	-0.055542	0.002136	0.012054
16.441	0.017853	0.02182	-0.040131	-0.027771	-0.015259	0.006561	0.12863	0.003815	0.08606	0.11658	0.037384	-0.012665	0.010529	0.095673	-0.046692	0.01709	-0.007324	-0.19501	0.028839	0.041656	-0.039978	0.0177	-0.18372	-0.20187	-0.079498	-0.009918	0.53177	-0.006866	-0.48019	0.059052	-0.004272	0.006866
16.442	0.00946	0.045471	0.031433	-0.010834	0.050964	0.098572	0.15915	0.012054	0.076752	0.33066	0.1297	-0.010986	-0.099182	0.18784	0.12116	0.018921	-0.00061	-0.21439	0.15671	0.034027	-0.003357	0.026245	0.013275	-0.25543	-0.10132	-0.003357	-0.19318	0.002136	-0.17822	0.13001	-0.002289	-0.000458
16.443	0.00885	0.034637	0.049286	0.019989	0.059509	0.14206	0.14893	0.007019	0.059357	0.56671	0.046997	-0.02243	0.2948	0.12787	0.22995	0.006104	0.005188	-0.22629	0.078125	-0.011292	0.012207	0.015717	0.044861	-0.28244	-0.092926	-0.003204	-0.31189	-0.003204	-0.045776	0.08316	-0.000458	0.00351
16.444	0.000153	0.017395	-0.088654	0.024414	0.024872	0.073395	0.14343	0.016632	0.062256	0.47455	-0.036316	-0.012512	0.58868	0.044098	0.14008	0.003357	-0.003052	-0.20248	-0.10391	-0.009613	0.021667	0.028687	0.12528	-0.30319	-0.065002	-0.006104	-0.7898	-0.00824	-0.083466	0.092773	-0.003357	0.002594
16.445	0.005493	0.038452	-0.091095	0.020752	0.006714	0.086823	0.13519	0.005035	0.083618	0.17136	-0.027771	-0.013123	0.40604	-0.010681	0.025787	-0.001984	0.006409	-0.22095	-0.21683	-0.068359	0.015717	0.022125	0.19043	-0.20981	-0.049591	0.000458	-0.77774	-0.000763	-0.11948	0.12009	-0.00061	-0.000153
